<svg xmlns="http://www.w3.org/2000/svg" width="154" height="38.762" viewBox="0 0 154 38.762"><path d="M42.99,7.067C42.377,3.281,37.761,1.009,32.272,2.1A15.947,15.947,0,0,0,23.78,7.085,12.62,12.62,0,0,1,34.7,15.919c6.6-1.28,8.87-4.606,8.293-8.852" transform="translate(-2.346 -0.18)" fill="#9dc814"/><path d="M29.138,17.5H29.5a7.6,7.6,0,0,0-8.23-4.426,3.327,3.327,0,0,0,0,.523c.568,2.894,3.777,3.9,7.87,3.9" transform="translate(-2.098 -1.278)" fill="#9dc814"/><path d="M22.467,11.674a8.591,8.591,0,0,1,7.96,5.409c.992-.045,2.019-.144,3.065-.279h.081A11.656,11.656,0,0,0,22.845,8.69a8.059,8.059,0,0,0-1.505,3.119,9.339,9.339,0,0,1,1.127-.135" transform="translate(-2.106 -0.856)" fill="#9dc814"/><path d="M15.172,25H14.82a7.689,7.689,0,0,0,7,4.507,7.941,7.941,0,0,0,1.271-.072,3.2,3.2,0,0,0-.045-.514C22.446,26.01,19.237,25,15.172,25" transform="translate(-1.463 -2.464)" fill="#e61673"/><path d="M21.376,30.409A8.591,8.591,0,0,1,13.416,25c-.992.045-2.019.135-3.056.27h-.09A11.656,11.656,0,0,0,21,33.383a8.113,8.113,0,0,0,1.514-3.119,7.825,7.825,0,0,1-1.136.09" transform="translate(-1.014 -2.464)" fill="#e61673"/><path d="M8.384,25.55C1.8,26.857-.5,30.156.09,34.4.694,38.188,5.31,40.46,10.8,39.36a15.892,15.892,0,0,0,8.492-4.976A12.548,12.548,0,0,1,8.384,25.55" transform="translate(-0.003 -2.518)" fill="#e61673"/><path d="M18.513,13.77a7.7,7.7,0,0,0-4.453,6.968,8.113,8.113,0,0,0,.108,1.244,4.056,4.056,0,0,0,2.118-1.226c1.217-1.28,1.974-4.02,2.227-6.986" transform="translate(-1.388 -1.357)" fill="#00a0e9"/><path d="M12.736,20.279a8.609,8.609,0,0,1,5.409-7.969,26.972,26.972,0,0,0-.063-3.2,11.638,11.638,0,0,0-8.4,11.169c0,.045,0,.09,0,.144a5.9,5.9,0,0,0,3.155,1.172,9.015,9.015,0,0,1-.108-1.316" transform="translate(-0.956 -0.898)" fill="#00a0e9"/><path d="M17.405,7.3a11.16,11.16,0,0,0-1.433-4.669A5.409,5.409,0,0,0,11.519,0c-1.83,0-3.84,1.019-5.76,3.155C1.973,7.32,3.7,12.864,6.137,16.433A12.62,12.62,0,0,0,8.2,18.84,12.557,12.557,0,0,1,17.405,7.3" transform="translate(-0.352 0)" fill="#00a0e9"/><path d="M26.27,33.638A10.817,10.817,0,0,0,27.7,38.308a5.409,5.409,0,0,0,4.453,2.632c1.8,0,3.831-1.028,5.787-3.164,3.8-4.156,2.064-9.709-.37-13.278a12.927,12.927,0,0,0-2.109-2.4A12.539,12.539,0,0,1,26.27,33.638" transform="translate(-2.591 -2.178)" fill="#fabe00"/><path d="M26.189,28.333a7.7,7.7,0,0,0,4.453-6.968,8.059,8.059,0,0,0-.117-1.235,3.948,3.948,0,0,0-2.109,1.226c-1.217,1.28-1.974,4.02-2.236,6.977" transform="translate(-2.583 -1.984)" fill="#fabe00"/><path d="M31.525,21.352a8.582,8.582,0,0,1-5.409,7.969,25.321,25.321,0,0,0,.045,3.209,11.656,11.656,0,0,0,8.41-11.178v-.135A6.022,6.022,0,0,0,31.417,20a8.023,8.023,0,0,1,.117,1.316" transform="translate(-2.573 -1.971)" fill="#fabe00"/><path d="M82.252,8.644H96.27a.189.189,0,0,1,.135.316S87.3,17.6,82.433,22.481c-.9.9-.6,2.344.622,2.344h19.489V22.292H88.49a.18.18,0,0,1-.135-.306l13.99-13.522c.9-.9.6-2.344-.613-2.344H82.252Z" transform="translate(-8.075 -0.603)" fill="#727171"/><path d="M141.582,8.644H155.6a.189.189,0,0,1,.135.316s-9.1,8.645-13.972,13.522c-.9.9-.6,2.344.622,2.344h19.489V22.292H147.82a.18.18,0,0,1-.135-.306l13.99-13.522c.9-.9.6-2.344-.613-2.344h-19.48Z" transform="translate(-13.923 -0.603)" fill="#727171"/><path d="M134.963,6.15h-.793V24.792h3.93V6.15h-3.137Z" transform="translate(-13.226 -0.606)" fill="#727171"/><rect width="14.775" height="2.407" transform="translate(57.05 13.549)" fill="#727171"/><path d="M60.825,11.775a2.939,2.939,0,0,1,3.029-3.128H77.628V6.15H62.24c-4.507,0-6.31,3.155-6.31,6.067h0v6.508h0c0,2.912,1.8,6.067,6.31,6.067H77.628V22.3H63.854a2.939,2.939,0,0,1-3.029-3.128Z" transform="translate(-5.515 -0.606)" fill="#727171"/><path d="M125.543,6.15,118.1,19.888a.135.135,0,0,1-.117.063.108.108,0,0,1-.108-.063L110.417,6.15H105.91l10.051,18.029a1.262,1.262,0,0,0,1.109.649h1.8a1.235,1.235,0,0,0,1.1-.649L130.033,6.15Z" transform="translate(-10.441 -0.606)" fill="#727171"/><path d="M167.463,6.528h-.694V8.619h-.5V6.528h-.694V6.14h1.893Z" transform="translate(-16.321 -0.605)" fill="#727171"/><path d="M168.629,6.14l.631,1.83h.009l.64-1.83h.649V8.619h-.5V7.88l.045-1.091H170.1l-.667,1.83H169.1l-.658-1.83h-.009l.045,1.091v.739h-.5V6.14Z" transform="translate(-16.558 -0.605)" fill="#727171"/><path d="M61.087,36.572h0a1.875,1.875,0,0,1-.595,1.307,1.947,1.947,0,0,1-1.4.478,1.8,1.8,0,0,1-1.487-.667,2.569,2.569,0,0,1-.568-1.731v-.9a2.6,2.6,0,0,1,.568-1.731,1.866,1.866,0,0,1,1.487-.667,2.01,2.01,0,0,1,1.406.469,1.893,1.893,0,0,1,.586,1.316h-.424a1.722,1.722,0,0,0-.478-1.055,1.5,1.5,0,0,0-1.082-.361,1.415,1.415,0,0,0-1.163.559A2.254,2.254,0,0,0,57.5,35.03v.9a2.245,2.245,0,0,0,.406,1.478,1.415,1.415,0,0,0,1.163.559,1.569,1.569,0,0,0,1.091-.352,1.749,1.749,0,0,0,.5-1.046Z" transform="translate(-5.624 -3.219)" fill="#717071"/><path d="M64.593,34.7h-.334a1.055,1.055,0,0,0-.7.234,1.343,1.343,0,0,0-.4.667v2.84H62.7V34.316h.406L63.16,35h0a1.505,1.505,0,0,1,.478-.595,1.19,1.19,0,0,1,.712-.216h.306Z" transform="translate(-6.182 -3.37)" fill="#717071"/><path d="M67.084,38.533a1.668,1.668,0,0,1-1.289-.568,2.118,2.118,0,0,1-.5-1.442v-.216a2.118,2.118,0,0,1,.5-1.46,1.587,1.587,0,0,1,1.235-.586,1.532,1.532,0,0,1,1.19.478A1.848,1.848,0,0,1,68.634,36v.388H65.741V36.5a1.8,1.8,0,0,0,.37,1.127,1.172,1.172,0,0,0,.974.469,2,2,0,0,0,.73-.117,1.533,1.533,0,0,0,.514-.334l.189.306a1.587,1.587,0,0,1-.586.388,2.19,2.19,0,0,1-.847.144M67.03,34.6a1.127,1.127,0,0,0-.9.388,1.668,1.668,0,0,0-.4.965h2.416v-.108a1.343,1.343,0,0,0-.316-.9,1.109,1.109,0,0,0-.9-.361" transform="translate(-6.437 -3.376)" fill="#717071"/><path d="M72.6,38.439a3.4,3.4,0,0,1-.063-.361v-.306a1.884,1.884,0,0,1-.613.541,1.8,1.8,0,0,1-.9.207,1.262,1.262,0,0,1-.9-.316,1.118,1.118,0,0,1-.334-.9,1.055,1.055,0,0,1,.487-.9,2.272,2.272,0,0,1,1.334-.343h.9v-.514a.9.9,0,0,0-.279-.613,1.181,1.181,0,0,0-.793-.252,1.235,1.235,0,0,0-.784.243.694.694,0,0,0-.315.586h-.424a.955.955,0,0,1,.415-.82,1.731,1.731,0,0,1,1.127-.37,1.641,1.641,0,0,1,1.1.352,1.2,1.2,0,0,1,.415.992v1.974a3.236,3.236,0,0,0,0,.424,2.705,2.705,0,0,0,.081.406Zm-1.5-.316a1.6,1.6,0,0,0,.9-.234,1.424,1.424,0,0,0,.55-.586v-.9h-.9a1.659,1.659,0,0,0-.992.27.784.784,0,0,0-.37.658.676.676,0,0,0,.234.541.9.9,0,0,0,.631.216" transform="translate(-6.88 -3.382)" fill="#717071"/><path d="M75.335,33.16v1.055h.9v.37h-.9v2.7a.9.9,0,0,0,.144.568.5.5,0,0,0,.4.171h.451l.072.343a1.145,1.145,0,0,1-.279.072l-.3-.018a.9.9,0,0,1-.676-.27,1.271,1.271,0,0,1-.243-.9v-2.7H74.19v-.37h.73V33.16Z" transform="translate(-7.314 -3.268)" fill="#717071"/><path d="M78.051,32.93H77.6v-.64h.451Zm0,5.291H77.6V34.129h.451Z" transform="translate(-7.65 -3.182)" fill="#717071"/><path d="M79.951,34.321v.712a1.451,1.451,0,0,1,.532-.586,1.505,1.505,0,0,1,.793-.207,1.262,1.262,0,0,1,1.028.415,1.965,1.965,0,0,1,.352,1.271v2.506H82.2V35.925a1.478,1.478,0,0,0-.27-1,.9.9,0,0,0-.748-.3,1.235,1.235,0,0,0-.784.252,1.46,1.46,0,0,0-.433.676v2.876H79.5V34.321Z" transform="translate(-7.838 -3.374)" fill="#717071"/><path d="M84.119,36.413a2.7,2.7,0,0,1,.415-1.578,1.487,1.487,0,0,1,1.929-.4,1.533,1.533,0,0,1,.532.541l.054-.658h.379v4.066a1.8,1.8,0,0,1-.433,1.253,1.623,1.623,0,0,1-1.226.46,3.227,3.227,0,0,1-.631-.072,2.344,2.344,0,0,1-.586-.2l.117-.388a2.506,2.506,0,0,0,.514.189,2.9,2.9,0,0,0,.577.063,1.145,1.145,0,0,0,.9-.352,1.415,1.415,0,0,0,.307-.956v-.523a1.523,1.523,0,0,1-.532.487,1.632,1.632,0,0,1-.748.162,1.37,1.37,0,0,1-1.163-.55,2.371,2.371,0,0,1-.415-1.469Zm.451.081a2.118,2.118,0,0,0,.343,1.19,1.028,1.028,0,0,0,.9.442,1.262,1.262,0,0,0,.73-.2,1.316,1.316,0,0,0,.46-.568V35.448a1.424,1.424,0,0,0-.442-.586,1.145,1.145,0,0,0-.748-.234,1.028,1.028,0,0,0-.9.5,2.506,2.506,0,0,0-.306,1.289Z" transform="translate(-8.292 -3.375)" fill="#717071"/><path d="M94.5,35.608H91.831V37.9h3.056v.4H91.38V32.75h3.489v.388H91.831V35.22H94.5Z" transform="translate(-9.009 -3.228)" fill="#717071"/><path d="M98.8,38.439a3.4,3.4,0,0,1-.063-.361,1.7,1.7,0,0,1,0-.306,1.884,1.884,0,0,1-.613.541,1.8,1.8,0,0,1-.9.207,1.3,1.3,0,0,1-.9-.315,1.154,1.154,0,0,1-.334-.9,1.064,1.064,0,0,1,.5-.9A2.272,2.272,0,0,1,97.8,36.1h.9v-.514a.9.9,0,0,0-.27-.649,1.181,1.181,0,0,0-.793-.252,1.235,1.235,0,0,0-.784.243.694.694,0,0,0-.316.586h-.424a.983.983,0,0,1,.424-.82,1.731,1.731,0,0,1,1.127-.37,1.641,1.641,0,0,1,1.1.352,1.226,1.226,0,0,1,.415.992v1.974a3.238,3.238,0,0,0,0,.424,1.469,1.469,0,0,0,.081.406Zm-1.5-.316a1.641,1.641,0,0,0,.9-.234,1.424,1.424,0,0,0,.55-.586v-.9H97.8a1.641,1.641,0,0,0-.992.27.766.766,0,0,0-.37.658.694.694,0,0,0,.225.541.9.9,0,0,0,.64.216" transform="translate(-9.463 -3.382)" fill="#717071"/><path d="M103.311,37.386a.685.685,0,0,0-.234-.5,1.974,1.974,0,0,0-.9-.352,2.8,2.8,0,0,1-1.091-.424.9.9,0,0,1-.361-.739.992.992,0,0,1,.406-.8,1.6,1.6,0,0,1,1.046-.325,1.677,1.677,0,0,1,1.109.343,1.055,1.055,0,0,1,.388.9h-.424a.748.748,0,0,0-.288-.595,1.163,1.163,0,0,0-.775-.252,1.136,1.136,0,0,0-.748.216.649.649,0,0,0-.243.5.6.6,0,0,0,.216.469,2.263,2.263,0,0,0,.9.325,2.8,2.8,0,0,1,1.1.451.9.9,0,0,1,.361.766,1,1,0,0,1-.415.838,1.731,1.731,0,0,1-1.1.316,1.8,1.8,0,0,1-1.181-.352,1.055,1.055,0,0,1-.406-.9h.424a.748.748,0,0,0,.361.64,1.505,1.505,0,0,0,.793.2,1.235,1.235,0,0,0,.775-.216.622.622,0,0,0,.288-.523" transform="translate(-9.924 -3.374)" fill="#717071"/><path d="M106.388,37.332l.144.487h0l1.244-3.489h.514l-1.8,4.778a2.344,2.344,0,0,1-.415.7.9.9,0,0,1-.739.3h-.37l.054-.379h.3a.6.6,0,0,0,.478-.216,1.7,1.7,0,0,0,.3-.541l.216-.55-1.587-4.065h.5Z" transform="translate(-10.323 -3.384)" fill="#717071"/><path d="M114.876,36.915a.9.9,0,0,0-.343-.739,3.209,3.209,0,0,0-1.181-.5,3.687,3.687,0,0,1-1.37-.595,1.172,1.172,0,0,1-.469-.983,1.244,1.244,0,0,1,.523-1.037,2.163,2.163,0,0,1,1.343-.4,1.947,1.947,0,0,1,1.379.478,1.451,1.451,0,0,1,.514,1.154h-.424a1.172,1.172,0,0,0-.4-.9,1.5,1.5,0,0,0-1.064-.361,1.659,1.659,0,0,0-1.046.3.9.9,0,0,0-.027,1.433,3.254,3.254,0,0,0,1.2.5,3.606,3.606,0,0,1,1.361.613,1.289,1.289,0,0,1,.469,1.028,1.244,1.244,0,0,1-.55,1.055,2.29,2.29,0,0,1-1.379.388,2.515,2.515,0,0,1-1.451-.415,1.316,1.316,0,0,1-.595-1.217h.415a1.064,1.064,0,0,0,.487.956,2.019,2.019,0,0,0,1.136.306,1.749,1.749,0,0,0,1.064-.288.9.9,0,0,0,.406-.766" transform="translate(-10.978 -3.219)" fill="#717071"/><path d="M117.181,34.321V35a1.505,1.505,0,0,1,.532-.559,1.532,1.532,0,0,1,.784-.2,1.289,1.289,0,0,1,.784.234,1.19,1.19,0,0,1,.46.694,1.623,1.623,0,0,1,.532-.685,1.4,1.4,0,0,1,.838-.243,1.235,1.235,0,0,1,1.019.442,2.127,2.127,0,0,1,.352,1.352v2.4h-.451V36.025a1.668,1.668,0,0,0-.27-1.082.946.946,0,0,0-.748-.316,1.055,1.055,0,0,0-.82.334,1.6,1.6,0,0,0-.352.847v2.623h-.46V36.025a1.668,1.668,0,0,0-.27-1.073.9.9,0,0,0-.748-.325,1.091,1.091,0,0,0-.766.252,1.253,1.253,0,0,0-.4.658v2.894h-.469V34.321Z" transform="translate(-11.507 -3.374)" fill="#717071"/><path d="M127.043,38.439a.68.68,0,0,0-.063-.361c-.063-.108,0-.2,0-.306a1.848,1.848,0,0,1-.6.541,1.8,1.8,0,0,1-.9.207,1.289,1.289,0,0,1-.9-.316,1.118,1.118,0,0,1-.334-.9,1.046,1.046,0,0,1,.5-.9,2.227,2.227,0,0,1,1.325-.343h.9v-.514a.9.9,0,0,0-.234-.613,1.2,1.2,0,0,0-.793-.252,1.244,1.244,0,0,0-.793.243.721.721,0,0,0-.316.586h-.415a.965.965,0,0,1,.424-.82,1.7,1.7,0,0,1,1.127-.37,1.623,1.623,0,0,1,1.091.352,1.2,1.2,0,0,1,.415.992v1.974a3.238,3.238,0,0,0,0,.424,2.7,2.7,0,0,0,.081.406Zm-1.487-.316a1.641,1.641,0,0,0,.9-.234A1.343,1.343,0,0,0,127,37.3v-.9h-.9a1.677,1.677,0,0,0-.992.27.784.784,0,0,0-.37.658.7.7,0,0,0,.234.541.9.9,0,0,0,.64.216" transform="translate(-12.247 -3.382)" fill="#717071"/><path d="M131,34.7h-.334a1.091,1.091,0,0,0-.712.234,1.325,1.325,0,0,0-.388.667v2.84h-.46V34.316h.4l.063.685h0a1.505,1.505,0,0,1,.478-.595,1.19,1.19,0,0,1,.712-.216h.306Z" transform="translate(-12.727 -3.37)" fill="#717071"/><path d="M132.872,33.16v1.055h.9v.37h-.9v2.7a.9.9,0,0,0,.153.568.46.46,0,0,0,.388.171h.451l.072.343a1.046,1.046,0,0,1-.279.072h-.325a.9.9,0,0,1-.676-.27,1.271,1.271,0,0,1-.243-.9v-2.7H131.7V34.2h.712V33.16Z" transform="translate(-12.982 -3.268)" fill="#717071"/><path d="M141.356,38.285h-.451V35.743h-3.155v2.542H137.3V32.75h.451v2.605h3.155V32.75h.451Z" transform="translate(-13.534 -3.228)" fill="#717071"/><path d="M143,36.313a2.2,2.2,0,0,1,.5-1.487,1.632,1.632,0,0,1,1.316-.586,1.668,1.668,0,0,1,1.325.586,2.2,2.2,0,0,1,.5,1.487v.126a2.209,2.209,0,0,1-.5,1.5,1.632,1.632,0,0,1-1.343.595,1.65,1.65,0,0,1-1.325-.577,2.209,2.209,0,0,1-.5-1.5Zm.46.126a1.929,1.929,0,0,0,.361,1.2,1.28,1.28,0,0,0,2.01,0,1.929,1.929,0,0,0,.361-1.2v-.126a1.92,1.92,0,0,0-.361-1.19,1.267,1.267,0,0,0-2.01,0,1.92,1.92,0,0,0-.361,1.19Z" transform="translate(-14.093 -3.375)" fill="#717071"/><path d="M148.473,34.321V35a1.505,1.505,0,0,1,.532-.559,1.532,1.532,0,0,1,.784-.2,1.289,1.289,0,0,1,.784.234,1.19,1.19,0,0,1,.46.694,1.623,1.623,0,0,1,.532-.685,1.4,1.4,0,0,1,.838-.243,1.235,1.235,0,0,1,1.019.442,2.127,2.127,0,0,1,.352,1.352v2.4h-.451V36.025a1.668,1.668,0,0,0-.27-1.082.947.947,0,0,0-.748-.316,1.055,1.055,0,0,0-.82.334,1.686,1.686,0,0,0-.361.847.307.307,0,0,0,0,.081v2.542h-.415V36.025a1.668,1.668,0,0,0-.27-1.073.9.9,0,0,0-.748-.325,1.091,1.091,0,0,0-.784.3,1.325,1.325,0,0,0-.406.658v2.894h-.46V34.321Z" transform="translate(-14.593 -3.374)" fill="#717071"/><path d="M157.273,38.533a1.659,1.659,0,0,1-1.289-.568,2.082,2.082,0,0,1-.514-1.442v-.216a2.127,2.127,0,0,1,.514-1.46,1.569,1.569,0,0,1,1.226-.586,1.532,1.532,0,0,1,1.19.478,1.8,1.8,0,0,1,.442,1.28v.388h-2.894v.117a1.8,1.8,0,0,0,.37,1.154,1.163,1.163,0,0,0,.974.469,1.92,1.92,0,0,0,.721-.117,1.532,1.532,0,0,0,.514-.334l.2.306a1.586,1.586,0,0,1-.586.388,2.227,2.227,0,0,1-.847.144m-.063-3.885a1.109,1.109,0,0,0-.847.388,1.668,1.668,0,0,0-.4.965h2.407v-.108a1.3,1.3,0,0,0-.316-.9,1.091,1.091,0,0,0-.856-.361" transform="translate(-15.325 -3.376)" fill="#717071"/><path d="M162.646,37.386a.685.685,0,0,0-.234-.5,1.974,1.974,0,0,0-.9-.352,2.794,2.794,0,0,1-1.091-.424.9.9,0,0,1-.352-.739.983.983,0,0,1,.4-.8,1.6,1.6,0,0,1,1.046-.325,1.677,1.677,0,0,1,1.109.343,1.055,1.055,0,0,1,.388.9h-.424a.748.748,0,0,0-.288-.595,1.163,1.163,0,0,0-.775-.252,1.1,1.1,0,0,0-.739.216.631.631,0,0,0-.252.5.6.6,0,0,0,.216.469,2.262,2.262,0,0,0,.856.325,2.8,2.8,0,0,1,1.1.451.9.9,0,0,1,.361.766,1,1,0,0,1-.415.838,1.731,1.731,0,0,1-1.1.316,1.8,1.8,0,0,1-1.181-.352,1.055,1.055,0,0,1-.406-.9h.424a.748.748,0,0,0,.361.64,1.505,1.505,0,0,0,.793.2,1.289,1.289,0,0,0,.784-.216.631.631,0,0,0,.279-.523" transform="translate(-15.768 -3.374)" fill="#717071"/><path d="M42.99,7.067C42.377,3.281,37.761,1.009,32.272,2.1A15.947,15.947,0,0,0,23.78,7.085,12.62,12.62,0,0,1,34.7,15.919c6.6-1.28,8.87-4.606,8.293-8.852" transform="translate(-2.346 -0.18)" fill="#96be24"/><path d="M29.138,17.5H29.5a7.6,7.6,0,0,0-8.23-4.426,3.327,3.327,0,0,0,0,.523c.568,2.894,3.777,3.9,7.87,3.9" transform="translate(-2.098 -1.278)" fill="#96be24"/><path d="M22.467,11.674a8.591,8.591,0,0,1,7.96,5.409c.992-.045,2.019-.144,3.065-.279h.081A11.656,11.656,0,0,0,22.845,8.69a8.059,8.059,0,0,0-1.505,3.119,9.339,9.339,0,0,1,1.127-.135" transform="translate(-2.106 -0.856)" fill="#96be24"/><path d="M15.172,25H14.82a7.689,7.689,0,0,0,7,4.507,7.941,7.941,0,0,0,1.271-.072,3.2,3.2,0,0,0-.045-.514C22.446,26.01,19.237,25,15.172,25" transform="translate(-1.463 -2.464)" fill="#d5206d"/><path d="M21.376,30.409A8.591,8.591,0,0,1,13.416,25c-.992.045-2.019.135-3.056.27h-.09A11.656,11.656,0,0,0,21,33.383a8.113,8.113,0,0,0,1.514-3.119,7.825,7.825,0,0,1-1.136.09" transform="translate(-1.014 -2.464)" fill="#d5206d"/><path d="M8.384,25.55C1.8,26.857-.5,30.156.09,34.4.694,38.188,5.31,40.46,10.8,39.36a15.892,15.892,0,0,0,8.492-4.976A12.548,12.548,0,0,1,8.384,25.55" transform="translate(-0.003 -2.518)" fill="#d5206d"/><path d="M18.513,13.77a7.7,7.7,0,0,0-4.453,6.968,8.113,8.113,0,0,0,.108,1.244,4.056,4.056,0,0,0,2.118-1.226c1.217-1.28,1.974-4.02,2.227-6.986" transform="translate(-1.388 -1.357)" fill="#1e95d4"/><path d="M12.736,20.279a8.609,8.609,0,0,1,5.409-7.969,26.972,26.972,0,0,0-.063-3.2,11.638,11.638,0,0,0-8.4,11.169c0,.045,0,.09,0,.144a5.9,5.9,0,0,0,3.155,1.172,9.015,9.015,0,0,1-.108-1.316" transform="translate(-0.956 -0.898)" fill="#1e95d4"/><path d="M17.405,7.3a11.16,11.16,0,0,0-1.433-4.669A5.409,5.409,0,0,0,11.519,0c-1.83,0-3.84,1.019-5.76,3.155C1.973,7.32,3.7,12.864,6.137,16.433A12.62,12.62,0,0,0,8.2,18.84,12.557,12.557,0,0,1,17.405,7.3" transform="translate(-0.352 0)" fill="#1e95d4"/><path d="M26.27,33.638A10.817,10.817,0,0,0,27.7,38.308a5.409,5.409,0,0,0,4.453,2.632c1.8,0,3.831-1.028,5.787-3.164,3.8-4.156,2.064-9.709-.37-13.278a12.927,12.927,0,0,0-2.109-2.4A12.539,12.539,0,0,1,26.27,33.638" transform="translate(-2.591 -2.178)" fill="#efb918"/><path d="M26.189,28.333a7.7,7.7,0,0,0,4.453-6.968,8.059,8.059,0,0,0-.117-1.235,3.948,3.948,0,0,0-2.109,1.226c-1.217,1.28-1.974,4.02-2.236,6.977" transform="translate(-2.583 -1.984)" fill="#efb918"/><path d="M31.525,21.352a8.582,8.582,0,0,1-5.409,7.969,25.321,25.321,0,0,0,.045,3.209,11.656,11.656,0,0,0,8.41-11.178v-.135A6.022,6.022,0,0,0,31.417,20a8.023,8.023,0,0,1,.117,1.316" transform="translate(-2.573 -1.971)" fill="#efb918"/></svg>